<svg width="0" height="0" class="hidden">
    <symbol xmlns="http://www.w3.org/2000/svg" version="1.1" xmlns:xlink="http://www.w3.org/1999/xlink" viewBox="0 0 480 480" style="enable-background:new 0 0 512 512" xml:space="preserve" id="person-note">
        <g>
            <path d="M160 0C93.726 0 40 53.726 40 120v88c.035 30.913 25.087 55.965 56 56h8v-16h-8c-22.08-.026-39.974-17.92-40-40v-88c0-57.438 46.562-104 104-104s104 46.562 104 104v88c-.026 22.08-17.92 39.974-40 40h-8v16h8c30.913-.035 55.965-25.087 56-56v-88C280 53.726 226.274 0 160 0zM65.928 377.032l5.848-9.208-13.512-8.576-5.848 9.216c-17.687 27.872-16.374 63.76 3.304 90.264V480h16v-24a7.999 7.999 0 0 0-1.752-5c-17.008-21.262-18.631-50.98-4.04-73.968zM440 0H336c-22.08.026-39.974 17.92-40 40v80c.026 22.08 17.92 39.974 40 40h16v32a8 8 0 0 0 13.656 5.656L403.312 160H440c22.08-.026 39.974-17.92 40-40V40c-.026-22.08-17.92-39.974-40-40zm24 120c0 13.255-10.745 24-24 24h-40a8 8 0 0 0-5.656 2.344L368 172.688V152a8 8 0 0 0-8-8h-24c-13.255 0-24-10.745-24-24V40c0-13.255 10.745-24 24-24h104c13.255 0 24 10.745 24 24v80z" fill="currentColor" opacity="1" data-original="#000000" class=""></path><path d="M336 40h56v16h-56zM408 40h32v16h-32zM336 72h104v16H336zM336 104h56v16h-56zM267.584 368.464l-5.848-9.216-13.512 8.576 5.848 9.216c14.592 22.985 12.969 52.701-4.04 73.96a7.999 7.999 0 0 0-1.752 5v24h16v-21.272c19.678-26.504 20.991-62.392 3.304-90.264z" fill="currentColor" opacity="1" data-original="#000000" class=""></path><path d="M472 272h-72c-30.016.035-54.666 23.729-55.888 53.72L320 369.128V336c-.035-30.913-25.087-55.965-56-56h-29.24l-.216-.168-.144.168H216c-8.837 0-16-7.163-16-16v-18.824A80.002 80.002 0 0 0 240 176v-64a80.165 80.165 0 0 0-9.6-37.968 8 8 0 0 0-10.4-3.44L84.592 134.304a8 8 0 0 0-4.592 7.24V176a80.002 80.002 0 0 0 40 69.176V264c0 8.837-7.163 16-16 16H56c-30.913.035-55.965 25.087-56 56v144h16V336c.026-22.08 17.92-39.974 40-40h25.456l72.04 100.656a8 8 0 0 0 6.4 3.344H160a8.002 8.002 0 0 0 6.4-3.2l76-100.8H264c22.08.026 39.974 17.92 40 40v64a8 8 0 0 0 14.992 3.88L356.704 336h45.864l-78 144h18.2L420.8 336h3.2c30.913-.035 55.965-25.087 56-56a8 8 0 0 0-8-8zM96 176v-29.376l123.528-58.128A64 64 0 0 1 224 112v64c0 35.346-28.654 64-64 64-35.346 0-64-28.654-64-64zm64.168 202.496L135.48 344h50.688l-26 34.496zM198.272 328H124l-22.904-32H104c17.673 0 32-14.327 32-32v-11.688a79.94 79.94 0 0 0 48 0V264c0 17.673 14.327 32 32 32h6.4l-24.128 32zM424 320h-63.2c3.825-18.613 20.198-31.979 39.2-32h63.2c-3.825 18.613-20.198 31.979-39.2 32z" fill="currentColor" opacity="1" data-original="#000000" class="">
            </path>
        </g>
    </symbol>
    <symbol xmlns="http://www.w3.org/2000/svg" version="1.1" xmlns:xlink="http://www.w3.org/1999/xlink" viewBox="0 0 496 496" style="enable-background:new 0 0 512 512" xml:space="preserve" id="person-support">
        <g>
            <path d="m402.524 432-18.52-55.568a56.001 56.001 0 0 0-43.112-37.384l-53.464-9.728v-4.144c9.304-5.4 17.4-12.624 23.848-21.176h16.152c13.232 0 24-10.768 24-24v-96c0-57.344-46.656-104-104-104s-104 46.656-104 104v56c0 15.424 10.968 28.328 25.512 31.336 4.488 22.992 18.856 42.448 38.488 53.84v4.144l-53.472 9.728a55.99 55.99 0 0 0-43.104 37.384l-3.2 9.608-27.248-27.248c-3.12-3.12-3.12-8.2 0-11.32l31.6-31.592-59.312-59.312L16.98 292.28C6.404 302.856.58 316.92.58 331.88s5.824 29.016 16.4 39.592l108.12 108.12C135.676 490.168 149.74 496 164.7 496s29.016-5.832 39.344-16.168l38.968-35.704L230.86 432h171.664zm-67.096-152c0 4.416-3.592 8-8 8H320.7a79.46 79.46 0 0 0 5.216-16.664c3.424-.712 6.576-2.072 9.512-3.784V280zm-8-26.224v-27.552c4.76 2.776 8 7.88 8 13.776s-3.24 11-8 13.776zm-160 0c-4.76-2.776-8-7.88-8-13.776s3.24-11 8-13.776v27.552zm0-53.776v9.136a31.73 31.73 0 0 0-8 3.312V184c0-48.52 39.48-88 88-88s88 39.48 88 88v28.448a31.44 31.44 0 0 0-8-3.312V200h-8c-23.656 0-45.896-9.216-62.632-25.944l-9.368-9.368-9.368 9.368C221.324 190.784 199.084 200 175.428 200h-8zm16 56v-40.304c24.024-1.808 46.424-11.72 64-28.432 17.576 16.712 39.976 26.632 64 28.432V256c0 11.664-3.184 22.576-8.656 32h-55.344v16h42.192c-11.28 9.928-26.024 16-42.192 16-35.288 0-64-28.712-64-64zm88 76.312v.376l-24 24-24-24v-.376c7.584 2.384 15.64 3.688 24 3.688s16.416-1.304 24-3.688zM126.02 381.488a40.014 40.014 0 0 1 30.792-26.712l55.92-10.16 34.696 34.696 34.688-34.688 55.912 10.16a40 40 0 0 1 30.792 26.712L380.332 416H214.86l-31.16-31.16-34.624 31.32c-3.016 3.032-8.288 3.032-11.312 0l-17.472-17.472 5.728-17.2zM52.684 279.192l36.688 36.688-8.688 8.688-36.688-36.688 8.688-8.688zm140.28 189.104c-7.552 7.536-17.6 11.704-28.28 11.704s-20.728-4.168-28.288-11.72L28.276 360.168c-7.552-7.552-11.712-17.6-11.712-28.28 0-10.688 4.16-20.736 11.712-28.288l4.4-4.4 36.688 36.688-.288.288c-9.352 9.36-9.352 24.584 0 33.944l57.368 57.368c4.536 4.528 10.56 7.032 16.976 7.032s12.44-2.496 16.68-6.752l.6-.536 36.856 36.856-4.592 4.208zm16.4-15.04-36.776-36.776 10.568-9.552 36.712 36.712-10.504 9.616zM471.428 0h-112c-13.232 0-24 10.768-24 24v64c0 13.232 10.768 24 24 24h21.368l-8.272 48.248 77.2-48.248h21.704c13.232 0 24-10.768 24-24V24c0-13.232-10.768-24-24-24zm8 88c0 4.408-3.592 8-8 8h-26.296l-50.808 31.752L399.772 96h-40.344c-4.408 0-8-3.592-8-8V24c0-4.408 3.592-8 8-8h112c4.408 0 8 3.592 8 8v64z" fill="currentColor" opacity="1" data-original="#000000" class=""></path>
            <path d="M367.428 32h96v16h-96zM367.428 64h64v16h-64zM447.428 64h16v16h-16zM247.428 24C142.9 24 52.86 96.304 29.452 197.16l-15.16-25.272-13.72 8.232 28.12 46.856 46.856-28.12-8.232-13.72-21.68 13.008C68.308 105.88 151.276 40 247.428 40c21.016 0 41.752 3.12 61.632 9.28L313.796 34c-21.416-6.64-43.744-10-66.368-10zM491.54 177.136l-46.856-28.12-28.112 46.864 13.72 8.232 14-23.336c7.368 21.56 11.136 44.112 11.136 67.224 0 47.576-16.48 94.088-46.392 130.96l12.424 10.08c32.224-39.712 49.968-89.808 49.968-141.04 0-24.472-3.944-48.368-11.632-71.248l23.512 14.104 8.232-13.72z" fill="currentColor" opacity="1" data-original="#000000" class=""></path>
        </g>
    </symbol>
    <svg xmlns="http://www.w3.org/2000/svg" version="1.1" xmlns:xlink="http://www.w3.org/1999/xlink" viewBox="0 0 512 512" style="enable-background:new 0 0 512 512" xml:space="preserve" id="teams">
        <g>
            <path d="M183.148 163.485h145.704a7.997 7.997 0 0 0 7.954-8.852c-3.34-31.204-23.944-56.609-51.745-67.204 9.768-8.27 15.986-20.61 15.986-34.381C301.048 28.208 280.84 8 256.001 8c-24.84 0-45.048 20.208-45.048 45.048 0 13.771 6.218 26.111 15.986 34.381-27.802 10.595-48.406 36-51.745 67.205a7.997 7.997 0 0 0 7.954 8.851zM256.001 24c16.017 0 29.047 13.031 29.047 29.048s-13.03 29.047-29.047 29.047-29.048-13.031-29.048-29.047c0-16.017 13.031-29.048 29.048-29.048zM256 98.095c30.4 0 56.22 20.686 63.337 49.39H192.664c7.116-28.703 32.936-49.39 63.336-49.39zm-130.969 5.091-18.876 4.274a8 8 0 0 1-3.533-15.605l47.505-10.756a7.998 7.998 0 0 1 9.659 9.108l-7.196 43.478a8.002 8.002 0 0 1-9.199 6.587 8 8 0 0 1-6.586-9.199l3.397-20.526c-51.255 51.785-77.711 124.685-71.099 197.512a7.998 7.998 0 0 1-7.976 8.723 8 8 0 0 1-7.957-7.276c-6.874-75.696 19.804-151.478 71.861-206.32zm225.29-27.42a8 8 0 0 1 11.268-1.023c58.385 48.665 93.106 121.114 95.076 196.702l10.325-16.369a8 8 0 0 1 13.533 8.535l-25.984 41.196a8.003 8.003 0 0 1-13.271.39l-25.655-35.831a8 8 0 0 1 13.01-9.314l12.112 16.916c-.376-72.859-33.216-143.115-89.388-189.936a7.997 7.997 0 0 1-1.026-11.266zM249.136 450.905a264.34 264.34 0 0 1-61.975-7.372l13.139 14.209a8.003 8.003 0 0 1-5.872 13.432 7.979 7.979 0 0 1-5.876-2.568l-33.068-35.763a8.002 8.002 0 0 1 3.059-12.92l41.251-15.507a8 8 0 0 1 5.631 14.977l-19.499 7.33c53.473 14.075 110.371 9.923 161.564-12.026a8 8 0 0 1 6.305 14.705 265.62 265.62 0 0 1-104.659 21.503zm-45.73-237.172a8 8 0 0 1 8-8h43.198a8 8 0 0 1 0 16h-43.198a8 8 0 0 1-8-8zm-40.158 0a8 8 0 0 1 8-8h12.802a8 8 0 0 1 0 16h-12.802a8 8 0 0 1-8-8zm75.382 147.054h71.215l29.937 31.163a8 8 0 0 0 13.769-5.542v-25.621h5.967c13.512 0 24.505-10.993 24.505-24.505V253.56c0-13.512-10.993-24.505-24.505-24.505h-61.643v-26.957c0-13.512-10.993-24.505-24.505-24.505H152.482c-13.512 0-24.505 10.993-24.505 24.505v82.722c0 13.512 10.993 24.505 24.505 24.505h5.967v25.621a8 8 0 0 0 13.769 5.542l29.937-31.163h11.97v26.957c0 13.512 10.993 24.505 24.505 24.505zm120.888-115.732c4.689 0 8.505 3.815 8.505 8.505v82.722c0 4.689-3.815 8.505-8.505 8.505h-13.967a8 8 0 0 0-8 8v13.746l-18.528-19.288a8.003 8.003 0 0 0-5.77-2.458H238.63c-4.689 0-8.505-3.815-8.505-8.505V253.56c0-4.69 3.815-8.505 8.505-8.505zm-160.771 48.27a8.003 8.003 0 0 0-5.77 2.458l-18.528 19.288v-13.746a8 8 0 0 0-8-8h-13.967c-4.689 0-8.505-3.815-8.505-8.505v-82.722c0-4.689 3.815-8.505 8.505-8.505H273.37c4.689 0 8.505 3.815 8.505 8.505v26.957H238.63c-6.35 0-12.142 2.428-16.5 6.404h-50.882a8 8 0 0 0 0 16h42.973a24.74 24.74 0 0 0-.096 2.101v11.626h-42.877a8 8 0 0 0 0 16h42.877v12.139zm92.775-28.131a8 8 0 0 1 8-8h41.229a8 8 0 0 1 0 16h-41.229a8 8 0 0 1-8-8zm-42.126 29.727a8 8 0 0 1 8-8h83.356a8 8 0 0 1 0 16h-83.356a8 8 0 0 1-8-8zm0 29.727a8 8 0 0 1 8-8h83.356a8 8 0 0 1 0 16h-83.356a8 8 0 0 1-8-8zm0-59.454a8 8 0 0 1 8-8h14.771a8 8 0 0 1 0 16h-14.771a8 8 0 0 1-8-8zm-131.481 162.75c9.768-8.27 15.986-20.61 15.986-34.381 0-24.84-20.208-45.048-45.048-45.048s-45.048 20.208-45.048 45.048c0 13.771 6.218 26.111 15.985 34.381-27.801 10.595-48.405 36.001-51.744 67.205A8.001 8.001 0 0 0 16 504l145.704-.001a7.996 7.996 0 0 0 7.954-8.851c-3.339-31.204-23.943-56.609-51.743-67.204zm-29.062-63.429c16.017 0 29.048 13.031 29.048 29.048 0 16.01-13.021 29.037-29.028 29.047h-.041c-16.007-.011-29.027-13.038-29.027-29.047 0-16.017 13.031-29.048 29.048-29.048zM25.516 488c7.115-28.698 32.924-49.381 63.315-49.39h.042c30.391.01 56.2 20.693 63.315 49.389zm478.438 7.147c-3.34-31.204-23.943-56.609-51.744-67.204 9.768-8.27 15.986-20.61 15.986-34.381 0-24.84-20.208-45.048-45.048-45.048S378.1 368.722 378.1 393.562c0 13.771 6.218 26.111 15.986 34.381-27.802 10.595-48.406 36.001-51.744 67.205-.242 2.258.486 4.511 2.004 6.199s3.681 2.652 5.95 2.652H496a7.999 7.999 0 0 0 7.954-8.852zm-80.806-130.632c16.017 0 29.048 13.031 29.048 29.048 0 16.01-13.021 29.036-29.028 29.047h-.04c-16.007-.011-29.028-13.037-29.028-29.047.001-16.017 13.032-29.048 29.048-29.048zM359.812 488c7.115-28.698 32.924-49.381 63.316-49.39h.042c30.391.01 56.199 20.693 63.315 49.389z" fill="currentColor" opacity="1" data-original="#000000" class="hovered-path"></path>
        </g>
    </svg>
</svg>